<svg fill="none" height="24" viewBox="0 0 24 24" width="24" xmlns="http://www.w3.org/2000/svg"><g fill="#000"><path d="m1.50197 7.275 5.764-5.765c.57744-.579297 1.51515-.580803 2.09445-.00337.07782.07757.14676.16355.20555.25637l4.10003 6.443c1.8579-.44233 3.8147-.15604 5.468.8.7059.4121.944 1.3184.5319 2.0243-.0641.1098-.142.2108-.2319.3007l-8.105 8.1c-.3257.3218-.7805.4772-1.235.422-.45519-.0584-.85766-.3243-1.09003-.72-.96021-1.6515-1.24675-3.6096-.8-5.467l-6.443-4.1c-.68979-.43852-.893482-1.3532-.45496-2.04299.05793-.09112.12565-.17562.20196-.25201z"/><path d="m16.54 14.428 5.94 5.94c.5856.5857.5856 1.5352 0 2.121-.5896.5764-1.5315.5764-2.121 0l-5.94-5.94c-.5755-.5959-.559-1.5455.0368-2.121.5813-.5614 1.5029-.5614 2.0842 0z"/></g></svg>