<svg enable-background="new 0 0 24 24" viewBox="0 0 24 24" xmlns="http://www.w3.org/2000/svg"><path d="m22.5 20.4-5.4-5.4 3-3c.2-.1.3-.3.4-.5.7-1.2.3-2.7-.9-3.4-1.7-1-3.6-1.3-5.5-1l-3.7-5.9c-.1-.2-.2-.3-.3-.4-.5-.5-1.1-.7-1.8-.7s-1.3.2-1.7.7l-5.8 5.8c-.1.1-.2.2-.3.4-.7 1.2-.4 2.7.8 3.4l5.9 3.7c-.3 1.9.1 3.8 1 5.5.4.7 1.1 1.1 1.8 1.2h.3c.7 0 1.3-.3 1.8-.7l3-3 5.3 5.3c.6.6 1.5.6 2.1 0 .6-.5.6-1.4 0-2zm-11.9-1.7c-.1.1-.3.2-.4.1-.1 0-.3-.1-.4-.2-.8-1.4-1.1-3.1-.7-4.7l.2-.7-7-4.5c-.2-.1-.3-.4-.1-.6 0 0 0-.1.1-.1l5.7-5.8c.1-.1.3-.1.3-.1.1 0 .2 0 .3.1 0 0 0 0 .1.1l4.5 7 .7-.2c1.6-.4 3.3-.1 4.7.7.1.1.2.2.2.3v.4s0 .1-.1.1z"/></svg>